<svg width="27" height="27" viewBox="0 0 27 27" xmlns="http://www.w3.org/2000/svg"><title>icon-chat-global@2x</title><path d="M0 13.034C0 5.847 5.847 0 13.034 0 20.222 0 26.07 5.847 26.07 13.034c0 7.188-5.847 13.035-13.035 13.035S0 20.222 0 13.034zM19.41 3.51l-.664.64s-.423.366-.646.195c-.224-.171-.447-.49-1.267-.562-.82-.074-1.789-.05-2.435.146-.646.196-1.242.587-.944.808.298.22.621.073.621.22 0 .147.224.44.472.44.249 0 .497-.538.696-.44.199.098.298.71 0 .93-.298.22-.621.22-.82-.05-.199-.269-.547-.318-1.019.074-.45.373-1.291.44-1.316.71-.025.269-.273.856-.72.88-.448.024-.671.342-.671.636s.67 1.028 1.366.685c.696-.342.646-.93 1.192-1.052.547-.122.834-.156 1.044.147.389.563.156.643.1.807-.141.408 1.051.05.645-.538-.249-.36-.43-.735-.298-.856.24-.22.596.147.745.44.15.294.2.66.572.636.372-.024.919-.049.969-.465.05-.416.794-.93 1.316-.587.522.343.696.808.273.759-.422-.05-1.739.269-1.54.587.199.318.373.856.77.783.398-.074.547.17.572.366.025.196-.497.22-.323.416.174.196.72.66.919 1.126.199.464.87 1.272 1.143 1.418.273.147.472.05.87-.244.397-.294.72-.44.57-.783-.148-.342.605-.62 1.168-.334.36.182 1.215.634 1.789 1.363-.009-3.899-2.056-7.325-5.149-9.3zm.528 11.305c.224-.44-.025-.954-.646-1.736-.62-.783-1.143-1.42-1.466-2.03-.322-.612-1.068-1.053-1.64-1.102-.57-.049-1.167.147-1.639-.122-.472-.27-.844-.783-1.739-.734-1.105.06-1.788.318-2.012.807-.223.49-.745.832-1.043.979-.299.147-.621.905-.497 1.81s.497 1.199 1.093 1.713c.596.513 1.267.538 1.863.269.596-.27.82-.172.82-.025s.323.343.596.147c.273-.196.398.416.398.93 0 .513.372.391.471.93.1.537-.273 1.687-.099 1.98.174.294.77.98.745 1.346-.024.367 0 .734.299.93.298.195 1.565-.074 2.384-1.59.82-1.517 1.317-2.3 1.267-2.863-.05-.562.622-1.198.845-1.639zm.323 2.667c-.318-.084-.602.042-.77.978-.087.488-.203.83-.1.93.225.215.796-.465.945-.978.149-.514.243-.846-.075-.93zM11.17 6.253c.372-.024 1.167-.17 1.167-.538 0-.367-.198-.758-.795-.66-.405.066-.596.464-.646.71-.05.244-.099.513.274.488zm-4.03 12.59c-.165-.47-1.562-.616-1.781-1.173-.22-.557-.274-1.143-1.342-1.73-.887-.485-1.83-.643-2.46-1.777.37 3.308 1.873 6.243 4.083 8.347 1.049-.521 1.275-1.61 1.253-2.115-.027-.644.411-1.084.247-1.553z" fill="#FEFEFE" fill-rule="evenodd"/></svg>