<svg width="25" height="25" viewBox="0 0 25 25" xmlns="http://www.w3.org/2000/svg"><title>icon-settings</title><path d="M11.781 0h1.438c.07.014.141.034.213.04.454.037.454.036.594.467l.028.075c.329.925.655 1.851.99 2.774a.353.353 0 0 0 .18.175c.55.235 1.104.455 1.651.693.116.05.2.059.314.004.988-.474 1.98-.938 2.968-1.411.106-.051.174-.045.265.03a12.973 12.973 0 0 1 1.717 1.715c.078.094.093.167.038.282a334.82 334.82 0 0 0-1.406 2.97.354.354 0 0 0-.016.253c.214.529.457 1.046.655 1.58a.554.554 0 0 0 .382.371c.984.341 1.964.695 2.948 1.04.13.045.192.108.197.253.004.157.04.313.063.47v1.438c-.014.07-.033.141-.04.213-.037.453-.036.453-.467.594l-.038.014c-.938.334-1.877.665-2.812 1.006a.353.353 0 0 0-.174.182c-.235.548-.454 1.104-.692 1.65-.05.116-.06.2-.005.314.466.97.923 1.943 1.39 2.911.07.145.072.253-.046.37-.558.548-1.113 1.1-1.665 1.654-.101.102-.189.103-.315.042-.981-.47-1.965-.936-2.951-1.397a.354.354 0 0 0-.254-.016c-.516.209-1.021.446-1.542.64-.219.082-.34.192-.416.414-.334.98-.688 1.952-1.03 2.93-.046.13-.108.193-.253.197-.158.004-.314.04-.471.063H11.78c-.057-.013-.115-.032-.173-.037-.501-.045-.491-.047-.657-.525-.322-.929-.658-1.852-.982-2.78-.04-.111-.102-.162-.21-.205a53.267 53.267 0 0 1-1.637-.676c-.114-.05-.198-.063-.313-.007-.988.473-1.98.938-2.967 1.411-.106.05-.176.045-.266-.03a12.94 12.94 0 0 1-1.717-1.715c-.079-.096-.092-.168-.037-.283.474-.987.942-1.977 1.405-2.97a.357.357 0 0 0 .017-.254 72.886 72.886 0 0 0-.71-1.707.337.337 0 0 0-.16-.17c-.321-.127-.648-.238-.973-.354-.707-.251-1.412-.505-2.12-.75-.144-.05-.219-.117-.218-.28 0-.15-.04-.3-.063-.45v-1.437c.018-.117.056-.234.05-.35-.01-.25.115-.349.34-.425.98-.333 1.953-.688 2.93-1.03a.35.35 0 0 0 .234-.235 37.09 37.09 0 0 1 .658-1.6c.056-.127.075-.217.012-.348-.47-.975-.927-1.956-1.396-2.93-.063-.13-.054-.22.043-.317C3.435 3.985 4 3.424 4.561 2.86c.095-.095.179-.092.298-.035.982.472 1.966.937 2.952 1.398a.36.36 0 0 0 .255.02 75.869 75.869 0 0 0 1.726-.718.308.308 0 0 0 .155-.15c.127-.328.24-.661.358-.992.254-.713.51-1.425.761-2.139.044-.124.11-.176.245-.18.157-.007.313-.042.47-.064zM17 12.497c-.004-2.482-2.022-4.501-4.495-4.497A4.498 4.498 0 0 0 8 12.502c-.005 2.475 2.01 4.492 4.495 4.498A4.506 4.506 0 0 0 17 12.497z" fill="#FFF" fill-rule="evenodd"/></svg>