<svg width="27" height="19" viewBox="0 0 27 19" xmlns="http://www.w3.org/2000/svg"><title>icon-chat-friends@2x</title><path d="M21.75 6.333a3.167 3.167 0 1 0 0-6.333 3.167 3.167 0 0 0 0 6.333zm-2.5 9.165v-1.025c0-1.685-.694-3.21-1.816-4.316.752-1.592 2.402-2.697 4.316-2.697 2.623 0 4.75 2.076 4.75 4.636v3.402h-7.25zm-12.5 0H0v-3.402C0 9.536 2.127 7.46 4.75 7.46c1.787 0 3.344.963 4.155 2.387a6.057 6.057 0 0 0-2.155 4.626v1.025zm-2-9.165A3.167 3.167 0 1 0 4.75 0a3.167 3.167 0 0 0 0 6.333zM13 8.104a3.5 3.5 0 1 0 0-7 3.5 3.5 0 0 0 0 7zm5.25 10.13v-3.76c0-2.83-2.35-5.125-5.25-5.125s-5.25 2.295-5.25 5.124v3.761h10.5z" fill="#FFF" fill-rule="evenodd"/></svg>